<svg xmlns="http://www.w3.org/2000/svg" viewBox="0 0 139.51 79.4"><defs><style>.cls-1{fill:#534e4b;}.cls-2{fill:#ff5ab3;}</style></defs><g id="katman_2" data-name="katman 2"><g id="katman_1-2" data-name="katman 1"><path class="cls-1" d="M17.5,62.09a1.12,1.12,0,0,1,.64-.15h.15v-.15l0-.34V61.3h-2.9l0,.11L9.16,76.47,2.83,61.37l-.15.08h0l.15-.08,0-.11H0v.64H.15a1.18,1.18,0,0,1,.64.15c.23.15.45.49.45,1.2v14c0,.71-.22,1-.45,1.2a1.18,1.18,0,0,1-.64.15H0v.68H3.62v-.64H3.51a1.24,1.24,0,0,1-.64-.15,1.33,1.33,0,0,1-.46-1.2V65.17L8.18,79.25l.15-.07h0l-.15.07,0,.11h1l0-.11-.15-.07h0l.15.07L15,65.17V77.34a1.33,1.33,0,0,1-.46,1.2,1.17,1.17,0,0,1-.64.15h-.15v.64h4.53v-.64h-.15a1.24,1.24,0,0,1-.64-.15,1.33,1.33,0,0,1-.46-1.2V63.29A1.33,1.33,0,0,1,17.5,62.09Z"/><path class="cls-1" d="M139.4,78.69a1.84,1.84,0,0,1-1.66-1.47h0l-5.28-15.81,0-.11h-3.81v.64h.15a1.63,1.63,0,0,1,.83.19.63.63,0,0,1,.34.37.9.9,0,0,1-.07.75l.15,0h0l-.15,0-4.9,14h0a2.34,2.34,0,0,1-.95,1.28,1.29,1.29,0,0,1-.71.19h-.15v.6h4.11v-.64h-.16a1.29,1.29,0,0,1-1-.3,1,1,0,0,1,0-.94l2-5.6h5.69l1.81,5.6a1,1,0,0,1-.07.94c-.15.19-.49.3-1.06.3h-.15v.64h5.28v-.64ZM128.35,70.8l2.6-7.44,2.41,7.44Z"/><path class="cls-1" d="M73.53,64.42h0l.15,0-.53-3,0-.11h-13l0,.11-.56,3,.15,0h0l-.15,0,0,.19h.64l0-.12-.15,0h0l.15,0a4.6,4.6,0,0,1,.49-1.35,1.54,1.54,0,0,1,1.39-.75h2.53a1,1,0,0,1,.79.23,1.39,1.39,0,0,1,.23,1V77.34a1.33,1.33,0,0,1-.46,1.2,1.17,1.17,0,0,1-.64.15h-.15v.64h4.53v-.64h-.15a1.24,1.24,0,0,1-.64-.15,1.33,1.33,0,0,1-.46-1.2V63.55a1.39,1.39,0,0,1,.23-1,1,1,0,0,1,.79-.23h2.53a1.57,1.57,0,0,1,1.43.75,5.41,5.41,0,0,1,.49,1.35l.15,0h0l-.15,0,0,.12h.64l0-.19Z"/><path class="cls-1" d="M119.41,77.07a13.26,13.26,0,0,1-1.47-3.79h0l-.11,0h0l.15,0c-.26-1-.45-2.07-.79-3a5.26,5.26,0,0,0-1.24-2,4.66,4.66,0,0,0,2.33-1,3.1,3.1,0,0,0,1-2.33A3.17,3.17,0,0,0,118,62.28a5.29,5.29,0,0,0-3.24-1h-7.69v.64h.15a1.28,1.28,0,0,1,.64.15,1.35,1.35,0,0,1,.45,1.2v14a1.35,1.35,0,0,1-.45,1.2,1.2,1.2,0,0,1-.64.15h-.15v.64h4.52v-.64h-.15a1.26,1.26,0,0,1-.64-.15c-.23-.15-.45-.49-.45-1.24v-7.4a1.4,1.4,0,0,1,.41-1.09A1.72,1.72,0,0,1,112,68.4a2.64,2.64,0,0,1,2.22.82,10.62,10.62,0,0,1,1.66,3.65,14.72,14.72,0,0,0,2.07,4.39,4.7,4.7,0,0,0,3.74,2.14h.15v-.64h-.15A3,3,0,0,1,119.41,77.07Zm-9.08-14.72h3.88a3.34,3.34,0,0,1,2,.68,2.29,2.29,0,0,1,1,1.87A2,2,0,0,1,117,66a1.65,1.65,0,0,1-.79.75,8.05,8.05,0,0,1-3.73.61,3.28,3.28,0,0,0-2.15.6v-5.6Z"/><polygon class="cls-1" points="129.9 63.21 129.9 63.21 130.01 63.29 129.9 63.21"/><path class="cls-1" d="M41.59,61.34h-6V62h.15a1.28,1.28,0,0,1,.64.15,1.34,1.34,0,0,1,.45,1.2v14a1.35,1.35,0,0,1-.45,1.2,1.2,1.2,0,0,1-.64.15h-.15v.64h.15v-.15h0v.15h5.88a9,9,0,0,0,0-18Zm0,17H38.84v-16h2.75c4,0,7,3.94,7,8S45.59,78.31,41.59,78.31Z"/><path class="cls-1" d="M53.13,61.3H53v.64h.15a1.28,1.28,0,0,1,.64.15,1.35,1.35,0,0,1,.45,1.2v14a1.35,1.35,0,0,1-.45,1.2,1.2,1.2,0,0,1-.64.15H53v.68H57.5v-.64h-.15a1.26,1.26,0,0,1-.64-.15c-.23-.15-.45-.49-.45-1.2V63.29c0-.71.22-1,.45-1.2a1.2,1.2,0,0,1,.64-.15h.15V61.3H53.13Z"/><path class="cls-1" d="M32.39,72.79h-.15v.15a13.43,13.43,0,0,1-.64,3.49c-.42,1.09-1.1,1.92-2.23,1.92H24.09V68.1h5.28c.79,0,1.1.18,1.25.37a.68.68,0,0,1,.11.34,1.43,1.43,0,0,0,0,.41v.15h.64V65.84h-.64V66h0a1.5,1.5,0,0,1,0,.42.62.62,0,0,1-.11.33c-.12.19-.46.38-1.25.38H24.09V62.31h6a1.61,1.61,0,0,1,1.43.75A4.25,4.25,0,0,1,32,64.45l.15,0h0l-.15,0,0,.12h.64l0-.19-.15,0h0l.15,0-.52-3,0-.11H20.85v.64H21a1.24,1.24,0,0,1,.64.15,1.33,1.33,0,0,1,.46,1.2v14a1.33,1.33,0,0,1-.46,1.2,1.17,1.17,0,0,1-.64.15h-.15v.68H32.31v-.15h0l.53-6.24v-.15h-.45Z"/><path class="cls-1" d="M102.56,77.07a13.26,13.26,0,0,1-1.47-3.79h0l-.11,0h0l.15,0c-.27-1-.45-2.07-.79-3a5.28,5.28,0,0,0-1.25-2,4.74,4.74,0,0,0,2.34-1,3.22,3.22,0,0,0-.26-4.92,5.34,5.34,0,0,0-3.25-1H90.23v.64h.15a1.26,1.26,0,0,1,.64.15c.23.15.45.49.45,1.2v14c0,.71-.22,1-.45,1.2a1.2,1.2,0,0,1-.64.15h-.15v.64h4.52v-.64H94.6A1.28,1.28,0,0,1,94,78.5c-.22-.15-.45-.49-.45-1.24v-7.4a1.4,1.4,0,0,1,.41-1.09,1.73,1.73,0,0,1,1.25-.37,2.62,2.62,0,0,1,2.22.82A10,10,0,0,1,99,72.87l.08,0h0a14.4,14.4,0,0,0,2.08,4.39,4.68,4.68,0,0,0,3.73,2.14H105v-.63h-.15A2.88,2.88,0,0,1,102.56,77.07ZM93.47,62.35h3.89a3.31,3.31,0,0,1,2,.68,2.27,2.27,0,0,1,1,1.87,2,2,0,0,1-.26,1.09,1.7,1.7,0,0,1-.79.75,8.1,8.1,0,0,1-3.74.61,3.3,3.3,0,0,0-2.15.6v-5.6Z"/><path class="cls-1" d="M87,72.79h-.15v.15a12.64,12.64,0,0,1-.64,3.49c-.41,1.09-1.09,1.92-2.22,1.92H78.73V68.1H84c.79,0,1.09.18,1.24.37a.61.61,0,0,1,.12.34,1.89,1.89,0,0,0,0,.41v.15H86V65.84H85.4V66a2,2,0,0,1,0,.42.56.56,0,0,1-.12.33c-.11.19-.45.38-1.24.38H78.73V62.31h6a1.6,1.6,0,0,1,1.43.75,4.28,4.28,0,0,1,.46,1.39l.15,0h0l-.15,0,0,.12h.65l0-.19-.15,0h0l.15,0-.53-3,0-.11H75.49v.64h.15a1.28,1.28,0,0,1,.64.15,1.35,1.35,0,0,1,.45,1.2v14a1.35,1.35,0,0,1-.45,1.2,1.2,1.2,0,0,1-.64.15h-.15v.68H87v-.15h0l.53-6.24v-.15H87Z"/><polygon class="cls-2" points="56.4 31.64 56.02 32.4 56.85 32.44 56.89 31.91 56.4 31.64"/><path class="cls-2" d="M85.56,26.37a22.88,22.88,0,0,0,4.37-13.22v-.49l-.42-.23-.41.72h0l.41-.72A22.43,22.43,0,0,0,75.76,9.64,22.56,22.56,0,0,0,67.06.26L66.64,1h0l.42-.72L66.61,0l-.42.26a22.82,22.82,0,0,0-8.7,9.38,22.41,22.41,0,0,0-13.72,2.79l.42.72h0l-.42-.72-.41.23v.49a22.59,22.59,0,0,0,4.37,13.22,22.81,22.81,0,0,0-4.37,13.26h0v.49l.41.23a22.47,22.47,0,0,0,13.76,2.79,22.56,22.56,0,0,0,8.7,9.38l.41.26.42-.26-.42-.72h0l.42.72a22.82,22.82,0,0,0,8.7-9.38,22.41,22.41,0,0,0,13.72-2.79l-.42-.72h0l.42.72.41-.23v-.49A23.05,23.05,0,0,0,85.56,26.37ZM88.2,13.64A21.31,21.31,0,0,1,84.47,25a22,22,0,0,0-5.77-4.78c-.19-.11-.41-.23-.64-.34v-.15a22.42,22.42,0,0,0-1.62-8.48A20.54,20.54,0,0,1,88.2,13.64ZM66.61,2a21.35,21.35,0,0,1,7.38,8,22,22,0,0,0-6.74,2.6l-.61.37-.6-.37L65.21,14c.34.19.68.41,1,.6l.45-.72h0l-.45.72.45.3.46-.3c.34-.23.64-.41,1-.6a20.86,20.86,0,0,1,6.67-2.49,20.71,20.71,0,0,1,1.65,8.25v1.13l.49.23c.34.19.68.34,1,.56a20.48,20.48,0,0,1,5.54,4.71,20.21,20.21,0,0,1-5.54,4.71c-.34.19-.64.38-1,.53l-.49.22v.53l.83,0h0l-.83,0V33a21.24,21.24,0,0,1-1.66,8.25,20,20,0,0,1-6.67-2.49c-.34-.19-.67-.41-1-.6l-.45.72h0l.45-.72-.45-.3-.45.3c-.34.23-.64.41-1,.6a20.86,20.86,0,0,1-6.67,2.49A20.71,20.71,0,0,1,56.92,33v-.6l-.9,0,.38-.75c-.34-.19-.68-.34-1-.57a20.31,20.31,0,0,1-5.54-4.71,20.56,20.56,0,0,1,5.54-4.71h0c.34-.19.64-.37,1-.53l.49-.22V19.78a21.24,21.24,0,0,1,1.66-8.25A20.18,20.18,0,0,1,65.17,14h0l0-.07L66,12.58A21.87,21.87,0,0,0,59.22,10,21.06,21.06,0,0,1,66.61,2ZM45.05,13.64a20.73,20.73,0,0,1,11.72-2.41,22.84,22.84,0,0,0-1.62,8.47v.15c-.19.12-.41.23-.6.34A24,24,0,0,0,48.78,25,21.12,21.12,0,0,1,45.05,13.64Zm0,25.5a21.31,21.31,0,0,1,3.73-11.37,22,22,0,0,0,5.77,4.78c.19.11.41.23.64.34V33a22.62,22.62,0,0,0,1.62,8.48A20.6,20.6,0,0,1,45.05,39.14ZM66.64,50.82a21.35,21.35,0,0,1-7.38-8A22,22,0,0,0,66,40.27l.61-.37.6.37A22.06,22.06,0,0,0,74,42.87,21,21,0,0,1,66.64,50.82Zm9.84-9.3A22.89,22.89,0,0,0,78.1,33v-.15l.6-.34a24,24,0,0,0,5.77-4.78A21,21,0,0,1,88.2,39.14,20.47,20.47,0,0,1,76.48,41.52Z"/><polygon class="cls-2" points="60.65 24.64 62.91 27.88 62.99 31.8 66.72 30.63 70.49 31.8 70.56 27.88 72.79 24.64 69.09 23.36 66.72 20.23 64.38 23.36 60.65 24.64"/></g></g></svg>