<svg width="49" height="56" viewBox="0 0 49 56" fill="none" xmlns="http://www.w3.org/2000/svg">
<path fill-rule="evenodd" clip-rule="evenodd" d="M24.2538 -0.000488281L24.7017 0.265564C28.588 2.5742 31.7532 5.98773 33.7747 10.0782C38.8178 9.41636 43.9336 10.4494 48.3151 12.9579L48.7603 13.2128L48.7563 13.7259C48.7167 18.7264 47.0989 23.6362 44.1059 27.6781C46.952 31.6589 48.4881 36.4441 48.5264 41.3155L48.5304 41.8285L48.0852 42.0834C43.8354 44.5165 38.8946 45.5615 33.9995 45.0181C31.9769 49.0835 28.8229 52.4763 24.9545 54.7744L24.5067 55.0404L24.0588 54.7744C20.1727 52.466 17.0076 49.0528 14.9861 44.9627C9.94287 45.6246 4.82684 44.5916 0.445249 42.083L0 41.8281L0.00405911 41.3151C0.043623 36.3145 1.66141 31.4047 4.65437 27.3628C1.80831 23.382 0.272254 18.5968 0.233908 13.7255L0.229869 13.2124L0.675105 12.9575C4.92484 10.5245 9.86544 9.47954 14.7604 10.0228C16.783 5.95694 19.9372 2.56378 23.806 0.265564L24.2538 -0.000488281ZM24.2538 2.04692C27.499 4.08329 30.1702 6.96574 31.9653 10.3897C29.6206 10.8907 27.313 11.768 25.125 13.0442L25.5668 13.8017L25.125 13.0442C24.9124 13.1682 24.7025 13.2951 24.4952 13.4248C24.2878 13.295 24.0777 13.168 23.865 13.044C21.5417 11.6889 19.0835 10.7834 16.5893 10.3008C18.3838 6.91584 21.0368 4.06565 24.2538 2.04692ZM22.9813 14.5589C20.694 13.2248 18.2654 12.362 15.8055 11.9408C14.6725 14.5903 14.0447 17.512 14.0447 20.5824C14.0447 20.7993 14.0478 21.0154 14.054 21.2307L14.07 21.7835L13.578 22.0361C13.2326 22.2135 12.8898 22.4013 12.55 22.5994C10.3369 23.8903 8.43534 25.5178 6.87244 27.3814C8.47749 29.3616 10.4571 31.0873 12.7799 32.4421C13.1267 32.6443 13.4767 32.8357 13.8294 33.0164L14.3219 33.2686L14.3063 33.8217C14.3003 34.0329 14.2973 34.2448 14.2973 34.4574C14.2973 37.4966 14.9125 40.3902 16.0238 43.0182C18.3303 42.5721 20.6033 41.7348 22.7517 40.4817C23.1031 40.2768 23.4466 40.0634 23.782 39.8419L24.2651 39.5231L24.7482 39.8419C25.0838 40.0635 25.4274 40.277 25.779 40.482C28.0662 41.8161 30.4947 42.6788 32.9544 43.1001C34.0876 40.4504 34.7156 37.5283 34.7156 34.4576C34.7156 34.241 34.7125 34.0252 34.7063 33.8102L34.6904 33.2574L35.1823 33.0048C35.5278 32.8274 35.8706 32.6397 36.2103 32.4415C38.4234 31.1507 40.325 29.5232 41.8879 27.6596C40.2828 25.6794 38.3032 23.9537 35.9805 22.5989C35.6336 22.3966 35.2836 22.2052 34.9309 22.0245L34.4383 21.7723L34.454 21.2191C34.46 21.0077 34.463 20.7954 34.463 20.5825C34.463 17.5436 33.848 14.6504 32.737 12.0227C30.4303 12.4687 28.1571 13.3061 26.0086 14.5592C25.6572 14.7642 25.3137 14.9776 24.9783 15.199L24.4952 15.5179L24.0121 15.199C23.6765 14.9775 23.3329 14.764 22.9813 14.5589ZM1.99783 14.2284C5.65899 12.2475 9.83662 11.3609 14.0018 11.7111C12.8986 14.4494 12.2908 17.4444 12.2908 20.5824C12.2908 20.6325 12.291 20.6825 12.2913 20.7325C12.0819 20.8463 11.8736 20.9636 11.6664 21.0845C9.39895 22.407 7.43493 24.0557 5.7986 25.9377C3.44259 22.4792 2.12856 18.4013 1.99783 14.2284ZM1.768 40.8122C1.90266 36.5196 3.28949 32.3275 5.77464 28.8069C7.46037 30.8127 9.51033 32.5654 11.8962 33.957C12.1109 34.0823 12.3268 34.2037 12.5438 34.3213C12.5436 34.3666 12.5434 34.412 12.5434 34.4574C12.5434 37.5788 13.1448 40.5588 14.237 43.2854C9.91848 43.7443 5.56542 42.8669 1.768 40.8122ZM24.5066 52.993C21.2617 50.9569 18.5906 48.0747 16.7955 44.6511C19.14 44.1501 21.4475 43.2728 23.6353 41.9967C23.8479 41.8727 24.0578 41.7458 24.2651 41.6162C24.4725 41.7459 24.6826 41.8729 24.8953 41.997C27.2185 43.352 29.6765 44.2574 32.1706 44.7401C30.3761 48.1246 27.7233 50.9745 24.5066 52.993ZM46.7625 40.8126C43.1012 42.7935 38.9235 43.6801 34.7581 43.3299C35.8616 40.5913 36.4695 37.596 36.4695 34.4576C36.4695 34.4078 36.4693 34.3581 36.469 34.3084C36.6784 34.1947 36.8867 34.0774 37.0939 33.9565C39.3614 32.634 41.3254 30.9853 42.9617 29.1033C45.3177 32.5618 46.6318 36.6397 46.7625 40.8126ZM36.8641 21.0839C39.25 22.4755 41.2999 24.2283 42.9857 26.234C45.4708 22.7134 46.8577 18.5214 46.9923 14.2287C43.195 12.1741 38.8421 11.2967 34.5237 11.7555C35.6156 14.4818 36.2169 17.4614 36.2169 20.5825C36.2169 20.6282 36.2167 20.674 36.2165 20.7197C36.4335 20.8373 36.6494 20.9587 36.8641 21.0839ZM26.9909 24.377L24.529 21.1171L22.0671 24.377L18.206 25.711L20.5455 29.0598L20.6212 33.1441L24.529 31.9539L28.4368 33.1441L28.5124 29.0598L30.8519 25.711L26.9909 24.377Z" fill="#FF5AB3"/>
</svg>
