<svg width="58" height="65" viewBox="0 0 58 65" fill="none" xmlns="http://www.w3.org/2000/svg">
<path fill-rule="evenodd" clip-rule="evenodd" d="M28.6405 8.99811e-06L29.1694 0.314214C33.7585 3.04043 37.4962 7.07126 39.8834 11.9014C45.8398 11.1187 51.8823 12.3382 57.0574 15.3006L57.5833 15.6016L57.5785 16.2075C57.532 22.1137 55.6211 27.9127 52.0858 32.6865C55.4468 37.3876 57.2608 43.0387 57.3061 48.7915L57.3108 49.3973L56.785 49.6983C51.7665 52.5714 45.9321 53.8053 40.1517 53.1638C37.763 57.9648 34.0383 61.9715 29.4698 64.6853L28.9409 64.9995L28.412 64.6853C23.823 61.9593 20.0853 57.9287 17.698 53.0988C11.7422 53.881 5.70034 52.6615 0.525705 49.6994L-0.000158988 49.3984L0.00461712 48.7925C0.0511725 42.8863 1.96205 37.0873 5.49735 32.3135C2.13632 27.6125 0.322332 21.9613 0.277076 16.2085L0.272308 15.6027L0.798126 15.3017C5.81622 12.4289 11.65 11.1949 17.4299 11.8361C19.8184 7.03492 23.5431 3.02813 28.1116 0.314214L28.6405 8.99811e-06ZM28.6405 2.41789C32.4726 4.82264 35.6269 8.22642 37.7468 12.2696C34.9793 12.8614 32.2557 13.8972 29.6731 15.4035C29.4216 15.5503 29.1731 15.7004 28.9279 15.8539C28.6829 15.7006 28.4347 15.5506 28.1834 15.404C25.4393 13.8035 22.5358 12.7341 19.5898 12.1642C21.7089 8.16726 24.8417 4.80171 28.6405 2.41789ZM27.1399 17.1931C24.4382 15.6173 21.5696 14.5983 18.6641 14.101C17.3259 17.2301 16.5843 20.6808 16.5843 24.3071C16.5843 24.5637 16.588 24.8193 16.5953 25.074L16.6142 25.7267L16.0333 26.0251C15.6258 26.2344 15.2214 26.4558 14.8207 26.6896C12.2076 28.2137 9.96233 30.1353 8.11684 32.3355C10.0123 34.674 12.3501 36.712 15.0931 38.3119C15.5024 38.5506 15.9154 38.7765 16.3318 38.9897L16.9134 39.2876L16.8949 39.9408C16.8878 40.1903 16.8842 40.4407 16.8842 40.6921C16.8842 44.2814 17.6108 47.6987 18.9233 50.8024C21.6464 50.2755 24.33 49.2868 26.8665 47.8074C27.282 47.565 27.6881 47.3127 28.0847 47.0509L28.6552 46.6742L29.2257 47.0509C29.6221 47.3125 30.028 47.5647 30.4432 47.8069C33.1444 49.3824 36.0126 50.4013 38.9175 50.8987C40.2559 47.7695 40.9976 44.3186 40.9976 40.6921C40.9976 40.436 40.9939 40.1808 40.9866 39.9266L40.9677 39.2738L41.5487 38.9755C41.9566 38.766 42.3613 38.5444 42.7625 38.3104C45.3755 36.7863 47.6208 34.8647 49.4663 32.6645C47.5708 30.326 45.2331 28.2881 42.49 26.6881C42.08 26.449 41.6663 26.2227 41.2492 26.0092L40.6676 25.7114L40.6861 25.0581C40.6931 24.8087 40.6967 24.5583 40.6967 24.3071C40.6967 20.7182 39.9703 17.3013 38.6581 14.198C35.9356 14.725 33.2526 15.7135 30.7166 17.1926C30.3012 17.435 29.8951 17.6873 29.4985 17.9491L28.9279 18.3258L28.3574 17.9491C27.961 17.6875 27.5552 17.4353 27.1399 17.1931ZM2.36015 16.8024C6.68315 14.4636 11.6159 13.4167 16.534 13.8298C15.2309 17.0638 14.5131 20.601 14.5131 24.3071C14.5131 24.3667 14.5133 24.4262 14.5136 24.4857C14.2669 24.6198 14.0214 24.7581 13.7771 24.9005C11.0999 26.462 8.78091 28.4086 6.8487 30.6306C4.06634 26.5463 2.51453 21.7305 2.36015 16.8024ZM2.08771 48.1986C2.24662 43.1284 3.88474 38.177 6.82031 34.0189C8.81107 36.3876 11.232 38.4576 14.0496 40.101C14.3029 40.2487 14.5575 40.3919 14.8135 40.5306C14.8132 40.5844 14.813 40.6382 14.813 40.6921C14.813 44.3786 15.5233 47.898 16.8133 51.1181C11.7133 51.6604 6.57247 50.6247 2.08771 48.1986ZM28.9409 62.5816C25.109 60.1771 21.9547 56.7736 19.8348 52.7307C22.6027 52.139 25.327 51.1031 27.91 49.5965C28.1616 49.4497 28.41 49.2996 28.6552 49.1461C28.9002 49.2994 29.1484 49.4494 29.3997 49.596C32.1434 51.1963 35.0463 52.2655 37.9918 52.8355C35.8726 56.8324 32.7397 60.1979 28.9409 62.5816ZM55.223 48.1976C50.8995 50.5366 45.9663 51.5836 41.0476 51.1701C42.3508 47.9359 43.0688 44.3984 43.0688 40.6921C43.0688 40.633 43.0686 40.574 43.0683 40.515C43.3154 40.3807 43.5614 40.2422 43.806 40.0995C46.4832 38.538 48.8022 36.5914 50.7344 34.3694C53.5168 38.4537 55.0686 43.2695 55.223 48.1976ZM43.5335 24.899C46.3512 26.5425 48.7721 28.6124 50.7628 30.9811C53.6984 26.823 55.3365 21.8716 55.4954 16.8014C51.0101 14.375 45.8686 13.3393 40.768 13.8821C42.0577 17.1019 42.7679 20.621 42.7679 24.3071C42.7679 24.3608 42.7677 24.4145 42.7674 24.4682C43.0241 24.6073 43.2795 24.7509 43.5335 24.899ZM31.8739 28.7871L28.9665 24.9375L26.0592 28.7871L21.4995 30.3626L24.2623 34.3173L24.3517 39.1406L28.9665 37.7351L33.5814 39.1406L33.6708 34.3173L36.4336 30.3626L31.8739 28.7871Z" fill="white"/>
</svg>
