<svg width="349" height="207" viewBox="0 0 349 207" fill="none" xmlns="http://www.w3.org/2000/svg">
<path fill-rule="evenodd" clip-rule="evenodd" d="M172.638 0.71912L171.617 0.112305L170.595 0.71912C161.35 6.21116 153.815 14.3223 148.987 24.0417C137.077 22.5815 125.021 25.0648 114.677 30.9868L113.612 31.5964L113.622 32.8233C113.715 44.6609 117.507 56.286 124.526 65.8957C117.57 75.4676 113.812 87.0296 113.719 98.8026L113.71 99.9727L114.725 100.554C125.026 106.452 137.026 108.933 148.886 107.499C153.72 117.292 161.294 125.464 170.595 130.99L171.667 131.626L172.738 130.99C182.038 125.465 189.611 117.295 194.445 107.504C206.29 108.926 218.272 106.444 228.559 100.555L229.574 99.9733L229.565 98.8032C229.472 87.0297 225.715 75.4672 218.758 65.895C225.777 56.2856 229.568 44.6611 229.662 32.8239L229.672 31.597L228.607 30.9874C218.249 25.0568 206.175 22.5744 194.249 24.0468C189.421 14.3252 181.885 6.21212 172.638 0.71912ZM190.101 24.721C185.792 16.535 179.389 9.64588 171.617 4.78103C163.847 9.64422 157.446 16.5303 153.136 24.7127C158.963 25.8854 164.703 28.0257 170.134 31.1935C170.643 31.4901 171.145 31.7936 171.641 32.1038C172.137 31.7934 172.639 31.4897 173.148 31.193C178.565 28.0331 184.29 25.8957 190.101 24.721ZM151.277 28.6286C157.017 29.6608 162.68 31.7014 168.021 34.8165C168.861 35.3068 169.683 35.8172 170.485 36.3468L171.641 37.1094L172.796 36.3467C173.599 35.8169 174.42 35.3064 175.261 34.816C180.588 31.7091 186.235 29.671 191.96 28.6362C194.642 34.9525 196.128 41.9114 196.128 49.222C196.128 49.7323 196.121 50.2409 196.106 50.7476L196.07 52.0092L197.194 52.5845C198.039 53.0173 198.877 53.4758 199.708 53.9604C205.136 57.1265 209.782 61.138 213.576 65.7361C209.776 70.3638 205.113 74.3998 199.659 77.5808C198.845 78.0555 198.024 78.5051 197.197 78.93L196.02 79.534L196.058 80.856C196.073 81.37 196.081 81.886 196.081 82.4037C196.081 89.7469 194.579 96.7346 191.869 103.071C186.16 102.03 180.528 99.9922 175.214 96.8931C174.372 96.4019 173.549 95.8906 172.745 95.36L171.644 94.6327L170.542 95.36C169.738 95.8908 168.914 96.4023 168.072 96.8936C162.772 99.9849 157.155 102.02 151.461 103.063C148.753 96.7291 147.252 89.744 147.252 82.4038C147.252 81.8942 147.26 81.3863 147.274 80.8803L147.312 79.5575L146.134 78.9543C145.29 78.5225 144.454 78.0649 143.625 77.5814C138.171 74.4004 133.509 70.3644 129.708 65.7368C133.502 61.1386 138.148 57.1271 143.576 53.961C144.391 53.4856 145.213 53.0353 146.042 52.6099L147.164 52.0338L147.128 50.773C147.113 50.2579 147.105 49.7408 147.105 49.222C147.105 41.9085 148.592 34.9469 151.277 28.6286ZM147.182 28.0634C137.011 27.0796 126.782 29.1881 117.84 34.0258C118.159 44.1814 121.408 54.1016 127.231 62.4647C131.201 57.8165 135.999 53.75 141.561 50.5058C142.073 50.2068 142.589 49.9169 143.107 49.6362C143.106 49.5486 143.106 49.4609 143.106 49.3732C143.106 49.3228 143.105 49.2724 143.105 49.222C143.105 41.7382 144.553 34.5951 147.182 28.0634ZM127.109 69.1678C121.29 77.5498 118.049 87.4866 117.742 97.6563C126.705 102.52 136.965 104.644 147.167 103.662C144.518 97.1019 143.058 89.9246 143.058 82.4038C143.058 82.294 143.059 82.1843 143.059 82.0748C142.541 81.7937 142.025 81.5036 141.512 81.2044C135.917 77.9413 131.095 73.8478 127.109 69.1678ZM153.234 106.795C157.527 114.976 163.911 121.863 171.667 126.73C179.419 121.865 185.802 114.981 190.095 106.803C184.303 105.63 178.598 103.498 173.199 100.348C172.674 100.042 172.155 99.7282 171.644 99.4073C171.132 99.7284 170.613 100.042 170.087 100.349C164.701 103.49 159.011 105.62 153.234 106.795ZM196.164 103.666C206.351 104.637 216.593 102.512 225.543 97.6568C225.235 87.4867 221.994 77.5493 216.175 69.1671C212.189 73.8471 207.367 77.9407 201.772 81.2038C201.275 81.4937 200.776 81.7749 200.274 82.0477C200.274 82.0998 200.274 82.152 200.275 82.2042C200.275 82.2707 200.275 82.3372 200.275 82.4037C200.275 89.926 198.814 97.1047 196.164 103.666ZM216.053 62.464C212.083 57.8158 207.286 53.7494 201.724 50.5052C201.194 50.1964 200.662 49.8974 200.127 49.6081C200.127 49.4795 200.128 49.3508 200.128 49.222C200.128 41.7397 198.681 34.5981 196.053 28.0674C206.24 27.0725 216.488 29.1804 225.444 34.0263C225.125 44.1815 221.876 54.1012 216.053 62.464ZM171.88 50.4979L177.767 58.2935L187.001 61.4839L181.406 69.4923L181.225 79.2597L171.88 76.4135L162.534 79.2597L162.353 69.4923L156.759 61.4839L165.992 58.2935L171.88 50.4979ZM46.0307 161.655L45.9085 163.243H45.5503C45.2405 163.243 44.5813 163.248 43.9983 163.646C43.4428 164.025 42.8671 164.826 42.8671 166.616V201.764C42.8671 203.583 43.4575 204.4 44.0287 204.788C44.6279 205.194 45.3035 205.199 45.613 205.199H45.9998V206.787H34.7005V205.199H35.0873C35.3968 205.199 36.0724 205.194 36.6716 204.788C37.2428 204.4 37.8332 203.583 37.8332 201.764V171.338L23.3176 206.787H20.9189L6.4033 171.338V201.764C6.4033 203.583 6.99368 204.4 7.56489 204.788C8.16404 205.194 8.8397 205.199 9.14914 205.199H9.53593V206.787H0.492188V205.199H0.878986C1.18842 205.199 1.86409 205.194 2.46324 204.788C3.03445 204.4 3.62482 203.583 3.62482 201.764V166.616C3.62482 164.83 3.03632 164.029 2.46569 163.648C1.86582 163.248 1.18884 163.243 0.878986 163.243H0.492188V161.655H7.4016L23.3037 199.623L38.7744 161.655H46.0307ZM21.1784 206.4H23.0579L38.2199 169.372L23.058 206.4H21.1784L21.1784 206.4ZM42.4803 166.615L42.4803 201.764C42.4803 201.764 42.4803 201.764 42.4803 201.764V166.615ZM6.01642 201.764V169.372L6.0165 169.372V201.764C6.0165 201.764 6.01642 201.764 6.01642 201.764ZM9.14906 206.4V205.586V206.4ZM82.3356 190.413L80.9546 206.787H52.2066V205.199H52.5934C52.9028 205.199 53.5785 205.194 54.1776 204.788C54.7488 204.4 55.3392 203.583 55.3392 201.764V166.678C55.3392 164.858 54.7488 164.041 54.1776 163.654C53.5785 163.248 52.9028 163.243 52.5934 163.243H52.2066V161.655H80.2966L81.75 169.822H80.1528L80.0936 169.506C79.9046 168.498 79.6322 167.158 78.9481 166.07C78.2816 165.009 77.2236 164.183 75.3989 164.183H60.3732V176.128H73.5193C75.522 176.128 76.2927 175.677 76.6184 175.218C76.7866 174.981 76.8674 174.701 76.9063 174.38C76.9333 174.157 76.9382 173.946 76.9434 173.724C76.9461 173.608 76.9488 173.489 76.9548 173.364L76.9723 172.995H78.5424V181.788H76.9732L76.9548 181.421C76.9487 181.299 76.946 181.183 76.9433 181.07C76.9381 180.856 76.9332 180.651 76.9063 180.43C76.8675 180.113 76.7866 179.829 76.617 179.587C76.2898 179.12 75.5176 178.656 73.5193 178.656H60.3732V204.259H73.5193C76.3164 204.259 78.0195 202.275 79.087 199.51C80.1532 196.749 80.5268 193.338 80.7145 190.771L80.7408 190.413H82.3356ZM59.9863 163.796H75.3988L59.9864 163.796L59.9863 176.515V163.796ZM89.0331 206.851L104.081 206.787C116.515 206.786 126.458 196.711 126.458 184.284C126.458 171.794 116.515 161.718 104.081 161.718H89.0331V163.306H89.4199C89.7293 163.306 90.405 163.311 91.0041 163.717C91.5754 164.104 92.1657 164.921 92.1657 166.741V201.826C92.1657 203.646 91.5754 204.463 91.0041 204.85C90.405 205.256 89.7293 205.261 89.4199 205.261H89.0331V206.851ZM104.081 164.246H97.1997V204.259H104.081C114.014 204.259 121.425 194.354 121.425 184.284C121.425 174.15 114.013 164.246 104.081 164.246ZM143.685 205.199V206.787H132.386V205.199H132.773C133.082 205.199 133.758 205.194 134.357 204.788C134.928 204.4 135.518 203.583 135.518 201.764V166.678C135.518 164.858 134.928 164.041 134.357 163.654C133.758 163.248 133.082 163.243 132.773 163.243H132.386V161.655H143.685V163.243H143.298C142.989 163.243 142.313 163.248 141.714 163.654C141.143 164.041 140.552 164.858 140.552 166.678V201.764C140.552 203.583 141.143 204.4 141.714 204.788C142.313 205.194 142.989 205.199 143.298 205.199H143.685ZM132.773 206.4L143.298 206.4L143.298 205.586V206.4H132.773ZM150.338 169.822H148.693L150.216 161.655H182.626L184.079 169.822H182.501L182.428 169.529C182.399 169.414 182.37 169.295 182.341 169.174L182.34 169.17C182.105 168.203 181.826 167.058 181.223 166.101C180.566 165.059 179.525 164.246 177.666 164.246H171.4C170.368 164.246 169.796 164.446 169.455 164.846C169.097 165.265 168.905 166.001 168.905 167.305V201.764C168.905 203.583 169.496 204.4 170.067 204.788C170.666 205.194 171.342 205.199 171.651 205.199H172.038V206.787H160.739V205.199H161.125C161.435 205.199 162.11 205.194 162.71 204.788C163.281 204.4 163.871 203.583 163.871 201.764V167.305C163.871 166.001 163.679 165.265 163.322 164.846C162.98 164.446 162.408 164.246 161.376 164.246H155.111C153.285 164.246 152.26 165.056 151.609 166.1C151.014 167.055 150.736 168.199 150.501 169.164L150.501 169.164L150.5 169.166C150.485 169.229 150.47 169.291 150.455 169.352C150.44 169.412 150.426 169.471 150.411 169.529L150.338 169.822ZM161.125 206.4L171.651 206.4L171.651 205.586V206.4H161.125ZM150.114 169.115C150.088 169.225 150.061 169.332 150.036 169.435C150.065 169.32 150.094 169.2 150.124 169.075L150.114 169.115ZM218.485 190.413L217.104 206.787H188.356V205.199H188.743C189.052 205.199 189.728 205.194 190.327 204.788C190.898 204.4 191.489 203.583 191.489 201.764V166.678C191.489 164.858 190.898 164.041 190.327 163.654C189.728 163.248 189.052 163.243 188.743 163.243H188.356V161.655H216.446L217.9 169.822H216.302L216.243 169.506C216.054 168.498 215.782 167.158 215.098 166.07C214.431 165.009 213.373 164.183 211.549 164.183H196.523V176.128H209.669C211.672 176.128 212.442 175.677 212.768 175.218C212.936 174.981 213.017 174.701 213.056 174.38C213.083 174.157 213.088 173.947 213.093 173.724V173.724C213.096 173.608 213.098 173.489 213.104 173.364L213.122 172.995H214.692V181.788H213.123L213.104 181.421C213.098 181.299 213.096 181.183 213.093 181.07C213.088 180.856 213.083 180.651 213.056 180.43C213.017 180.113 212.936 179.829 212.767 179.587C212.439 179.12 211.667 178.656 209.669 178.656H196.523V204.259H209.669C212.466 204.259 214.169 202.275 215.237 199.51C216.303 196.749 216.676 193.338 216.864 190.771L216.89 190.413H218.485ZM213.491 181.402L214.305 181.402L214.305 173.382V181.402H213.491ZM188.743 206.4L216.749 206.4L218.064 190.799L216.749 206.4H188.743ZM255.972 201.114C257.564 203.688 259.453 205.261 261.595 205.261H261.982V206.849H261.595C257.668 206.849 254.637 204.618 252.317 201.493C250 198.371 248.355 194.313 247.191 190.538C245.749 185.834 244.546 183.028 243.104 181.391C241.7 179.797 240.041 179.282 237.536 179.282C236.159 179.282 235.119 179.641 234.427 180.264C233.742 180.881 233.349 181.801 233.349 183.031V201.764C233.349 203.617 233.941 204.45 234.513 204.844C235.112 205.256 235.786 205.261 236.095 205.261H236.482V206.849H225.183V205.261H225.569C225.879 205.261 226.555 205.256 227.154 204.85C227.725 204.463 228.315 203.646 228.315 201.826V166.741C228.315 164.921 227.725 164.104 227.154 163.717C226.555 163.311 225.879 163.306 225.569 163.306H225.183V161.718H244.303C247.593 161.718 250.408 162.58 252.41 164.124C254.419 165.675 255.591 167.9 255.591 170.563C255.591 172.894 254.701 174.877 253.094 176.36C251.661 177.683 249.675 178.594 247.278 179.023C248.699 180.341 249.634 182.119 250.345 184.106C250.994 185.923 251.469 187.953 251.95 190.008C252.072 190.534 252.196 191.061 252.322 191.587C253.163 195.106 254.389 198.555 255.972 201.114ZM233.349 178.269C234.529 177.256 236.389 176.754 238.664 176.754C243.1 176.754 246.086 176.236 247.953 175.205C248.878 174.695 249.521 174.062 249.937 173.307C250.355 172.549 250.557 171.642 250.557 170.563C250.557 168.542 249.581 166.974 248.151 165.899C246.712 164.818 244.822 164.246 243.05 164.246H233.349V178.269ZM251.377 189.26C251.441 189.534 251.506 189.809 251.57 190.085L251.57 190.085C251.506 189.809 251.441 189.534 251.377 189.26ZM251.57 190.085L251.57 190.086L251.571 190.087L251.571 190.088C251.694 190.615 251.818 191.145 251.946 191.677C251.818 191.145 251.694 190.613 251.57 190.085ZM294.329 191.587C295.17 195.106 296.395 198.555 297.978 201.114C299.571 203.688 301.459 205.261 303.601 205.261H303.988V206.849H303.601C299.674 206.849 296.643 204.618 294.324 201.493C292.006 198.371 290.362 194.313 289.198 190.538C287.755 185.834 286.553 183.028 285.111 181.391C283.706 179.797 282.047 179.282 279.543 179.282C278.165 179.282 277.125 179.641 276.434 180.264C275.748 180.881 275.356 181.801 275.356 183.031V201.764C275.356 203.617 275.948 204.45 276.52 204.844C277.118 205.256 277.793 205.261 278.102 205.261H278.489V206.849H267.189V205.261H267.576C267.886 205.261 268.561 205.256 269.16 204.85C269.732 204.463 270.322 203.646 270.322 201.826V166.741C270.322 164.921 269.732 164.104 269.16 163.717C268.561 163.311 267.886 163.306 267.576 163.306H267.189V161.718H286.309C289.6 161.718 292.414 162.58 294.416 164.124C296.426 165.675 297.598 167.9 297.598 170.563C297.598 172.894 296.708 174.877 295.1 176.36C293.667 177.683 291.681 178.594 289.284 179.023C290.706 180.341 291.641 182.119 292.351 184.106C293.001 185.923 293.476 187.953 293.956 190.008C294.079 190.533 294.203 191.061 294.329 191.587ZM267.576 206.463L278.102 206.463L278.102 205.648V206.463H267.576ZM275.356 178.269C276.536 177.256 278.396 176.754 280.671 176.754C285.106 176.754 288.092 176.236 289.96 175.205C290.884 174.695 291.528 174.062 291.944 173.307C292.361 172.549 292.564 171.642 292.564 170.563C292.564 168.542 291.588 166.974 290.157 165.899C288.719 164.818 286.828 164.246 285.056 164.246H275.356V178.269ZM303.427 206.461C303.399 206.461 303.372 206.46 303.344 206.459C303.301 206.458 303.258 206.457 303.215 206.455C303.285 206.458 303.356 206.46 303.427 206.461ZM330.412 161.655L343.594 201.577L343.594 201.578C344.715 204.879 347.218 205.199 347.738 205.199H348.125V206.787H334.946V205.199H335.333C336.674 205.199 337.501 204.891 337.922 204.401C338.328 203.929 338.454 203.168 338.097 202.005L338.096 202.003L333.61 188.054H319.442L314.523 202.011L314.522 202.015C314.135 203.178 314.25 203.935 314.647 204.403C315.06 204.89 315.884 205.199 317.226 205.199H317.613V206.787H307.316V205.199H307.703C307.999 205.199 308.701 205.198 309.489 204.762C310.271 204.329 311.186 203.44 311.849 201.574L311.85 201.572L324.066 166.488L324.067 166.486C324.377 165.615 324.365 165.013 324.22 164.596C324.076 164.183 323.782 163.895 323.407 163.689C322.633 163.263 321.613 163.243 321.299 163.243H320.912V161.655H330.412ZM335.333 206.4L347.738 206.4L347.738 205.586V206.4H335.333ZM293.577 190.085C293.7 190.613 293.825 191.145 293.953 191.677C293.825 191.147 293.702 190.618 293.579 190.093L293.577 190.085ZM326.797 166.887L320.278 185.463H332.797L326.797 166.887ZM307.703 206.4L317.226 206.4L317.226 205.586V206.4H307.703ZM225.569 206.463L236.095 206.463L236.095 205.648V206.463H225.569Z" fill="white"/>
</svg>
