<svg width="48" height="53" viewBox="0 0 48 53" fill="none" xmlns="http://www.w3.org/2000/svg">
<path fill-rule="evenodd" clip-rule="evenodd" d="M24.225 -0.000488281L24.6349 0.243015C28.3455 2.44723 31.3699 5.70279 33.3074 9.60386C38.0918 9.01422 42.9354 10.0106 47.0907 12.3899L47.518 12.6345L47.5141 13.1269C47.4765 17.8748 45.9563 22.5374 43.1424 26.3925C45.9367 30.2351 47.446 34.8774 47.4832 39.6045L47.4869 40.0741L47.0793 40.3074C42.9509 42.6706 38.1422 43.6666 33.3887 43.0953C31.4489 47.0248 28.4095 50.3039 24.6771 52.5211L24.2472 52.7764L23.8174 52.5211C20.0848 50.3037 17.0452 47.0243 15.1054 43.0945C10.3472 43.6688 5.53318 42.6727 1.40096 40.3067L0.993468 40.0734L0.997184 39.6038C1.03455 34.8816 2.54093 30.244 5.32993 26.4038C2.51058 22.5462 0.987559 17.8787 0.950165 13.1259L0.946289 12.6335L1.37362 12.3889C5.52508 10.0125 10.3634 9.01622 15.1432 9.60275C17.0807 5.70217 20.1049 2.44702 23.8151 0.243015L24.225 -0.000488281ZM24.225 1.87307C27.344 3.82514 29.9131 6.58942 31.6427 9.87408C29.3088 10.3453 27.0101 11.2033 24.8345 12.4722C24.6308 12.5911 24.4295 12.7127 24.2308 12.837C24.0323 12.7128 23.8312 12.5913 23.6276 12.4725C21.4486 11.2016 19.1461 10.3429 16.8084 9.87216C18.538 6.58834 21.1067 3.82475 24.225 1.87307ZM22.7796 13.9264C20.6369 12.6767 18.3651 11.8579 16.0623 11.4436C14.985 13.9791 14.3884 16.7727 14.3884 19.7075C14.3884 19.9166 14.3914 20.125 14.3974 20.3326L14.412 20.8384L13.962 21.0697C13.6316 21.2395 13.3038 21.4191 12.9788 21.6086C10.7984 22.8803 8.93255 24.492 7.40925 26.3394C8.93374 28.1946 10.8036 29.8127 12.9904 31.0882C13.3242 31.2828 13.6609 31.467 14.0004 31.6407L14.4732 31.8828L14.4581 32.4137C14.4524 32.6161 14.4495 32.8192 14.4495 33.0231C14.4495 35.9691 15.0518 38.7725 16.1387 41.3147C18.4255 40.8962 20.6811 40.0792 22.8094 38.8379C23.1471 38.6409 23.4771 38.4359 23.7995 38.2231L24.2416 37.9313L24.6837 38.2231C25.0059 38.4356 25.3357 38.6405 25.6731 38.8373C27.8049 40.0808 30.0644 40.8984 32.3552 41.3162C33.4424 38.7736 34.045 35.9697 34.045 33.0231C34.045 32.8142 34.0419 32.6061 34.0359 32.3987L34.0205 31.8683L34.4925 31.6258C34.8223 31.4563 35.1495 31.2771 35.4738 31.0879C37.6645 29.8101 39.5371 28.1886 41.063 26.3294C39.5412 24.486 37.6781 22.8778 35.5015 21.6083C35.1672 21.4133 34.8298 21.2288 34.4897 21.0547L34.0388 20.8239L34.0531 20.3176C34.0588 20.115 34.0617 19.9116 34.0617 19.7075C34.0617 16.7734 33.4653 13.9804 32.3885 11.4453C30.0896 11.8603 27.8217 12.6785 25.6825 13.9261C25.3455 14.1227 25.0161 14.3274 24.6944 14.5397L24.2308 14.8457L23.7673 14.5397C23.4457 14.3275 23.1164 14.1229 22.7796 13.9264ZM2.64298 13.6086C6.23161 11.6672 10.3372 10.8213 14.419 11.2166C13.3642 13.8378 12.7831 16.7043 12.7831 19.7075C12.7831 19.764 12.7833 19.8204 12.7838 19.8767C12.5781 19.9882 12.3736 20.1033 12.1701 20.222C9.9358 21.5252 8.009 23.159 6.41501 25.0266C4.07579 21.6693 2.77072 17.6862 2.64298 13.6086ZM2.61136 39.1438C2.73469 35.0649 4.03401 31.0792 6.36667 27.7166C7.96549 29.5927 9.89924 31.2337 12.1424 32.5421C12.3494 32.6628 12.5575 32.7798 12.7667 32.8932C12.7665 32.9365 12.7664 32.9798 12.7664 33.0231C12.7664 36.0414 13.3523 38.9218 14.4155 41.5545C10.3229 41.9473 6.20716 41.0949 2.61136 39.1438ZM24.2472 50.8115C21.1352 48.8587 18.5731 46.0951 16.8504 42.8123C19.1704 42.3407 21.4553 41.486 23.6181 40.2245C23.8287 40.1017 24.0365 39.9759 24.2417 39.8473C24.4465 39.9757 24.6541 40.1013 24.8643 40.2239C27.0307 41.4875 29.3194 42.3429 31.6432 42.814C29.9205 46.096 27.3588 48.859 24.2472 50.8115ZM45.869 39.1444C42.2772 41.0929 38.1667 41.9451 34.0787 41.5551C35.1421 38.9222 35.7281 36.0416 35.7281 33.0231C35.7281 32.9742 35.728 32.9254 35.7276 32.8765C35.9267 32.7683 36.1248 32.6567 36.3218 32.5418C38.5692 31.231 40.5059 29.5863 42.1064 27.706C44.4438 31.071 45.7457 35.0609 45.869 39.1444ZM36.3103 20.2217C38.5404 21.5225 40.4642 23.1526 42.0565 25.0159C44.3909 21.6611 45.6934 17.6824 45.8212 13.6094C42.2287 11.6654 38.1179 10.8193 34.0314 11.2174C35.086 13.8384 35.6669 16.7046 35.6669 19.7075C35.6669 19.7584 35.6668 19.8093 35.6664 19.8601C35.8822 19.9767 36.0968 20.0972 36.3103 20.2217ZM26.6921 23.3478L24.3294 20.2194L21.9667 23.3478L18.2613 24.6282L20.5065 27.8419L20.5791 31.7616L24.3294 30.6194L28.0797 31.7616L28.1523 27.8419L30.3975 24.6282L26.6921 23.3478Z" fill="#FF5AB3"/>
</svg>
