<svg width="209" height="28" viewBox="0 0 209 28" fill="none" xmlns="http://www.w3.org/2000/svg">
<path fill-rule="evenodd" clip-rule="evenodd" d="M27.3047 0.954767L27.3781 0H23.0156L13.7145 22.8266L4.154 0H0V0.954767H0.232547C0.418836 0.954767 0.82584 0.957784 1.18649 1.19822C1.52956 1.42693 1.88337 1.90857 1.88337 2.98226V24.1136C1.88337 25.2077 1.52843 25.6989 1.18501 25.9316C0.824798 26.1758 0.418582 26.1788 0.232547 26.1788H0V27.1336H5.43718V26.1788H5.20464C5.0186 26.1788 4.61238 26.1758 4.25217 25.9316C3.90875 25.6989 3.55382 25.2077 3.55382 24.1136V5.82122L12.2807 27.1336H13.7228L22.4497 5.82122V24.1136C22.4497 25.2077 22.0948 25.6989 21.7514 25.9316C21.3912 26.1758 20.985 26.1788 20.7989 26.1788H20.5664V27.1336H27.3596V26.1788H27.127C26.941 26.1788 26.5348 26.1758 26.1746 25.9316C25.8311 25.6989 25.4762 25.2077 25.4762 24.1136V2.98226C25.4762 1.90621 25.8223 1.42456 26.1563 1.19686C26.5068 0.95787 26.9031 0.954767 27.0894 0.954767H27.3047ZM27.1269 0.232547L27.0892 0.722094C26.7126 0.722094 25.2435 0.722095 25.2435 2.98213V24.1135C25.2435 25.0537 25.4958 25.6092 25.8197 25.9374C25.4959 25.6092 25.2437 25.0538 25.2437 24.1136V2.98226C25.2437 0.72222 26.7127 0.72222 27.0894 0.72222L27.127 0.232547H27.1269ZM27.1269 26.4113V26.9009H20.7989V26.901H27.127V26.4113C27.127 26.4113 27.1269 26.4113 27.1269 26.4113ZM22.6822 4.63992V4.6395L13.5667 26.9009H12.4367L12.4368 26.901H13.5668L22.6822 4.63992ZM3.32127 4.6398L3.32114 4.6395V24.1135C3.32114 25.0537 3.57344 25.6092 3.89736 25.9374C3.5735 25.6092 3.32127 25.0538 3.32127 24.1136V4.6398ZM5.20451 26.4113V26.9009H0.232547V26.901H5.20464V26.4113C5.20459 26.4113 5.20455 26.4113 5.20451 26.4113ZM1.5397 1.18826C1.07211 0.722182 0.455209 0.722094 0.232547 0.722094V0.72222C0.455083 0.72222 1.07204 0.72222 1.5397 1.18826ZM3.99928 0.232547L13.7174 23.4354L13.7173 23.4355L3.99921 0.232547H3.99928ZM31.0911 27.1336H48.3748L49.205 17.2893H48.2462L48.2304 17.5049C48.1175 19.0478 47.8929 21.0985 47.2519 22.7586C46.6101 24.4208 45.5862 25.6138 43.9046 25.6138H36.001V10.2209H43.9046C45.1059 10.2209 45.5702 10.4999 45.7669 10.7809C45.8689 10.9265 45.9175 11.0969 45.9409 11.2879C45.9571 11.4203 45.96 11.5435 45.9631 11.6724V11.6724C45.9647 11.7404 45.9664 11.81 45.97 11.8834L45.9811 12.1043H46.9245V6.81779H45.9806L45.97 7.03927C45.9664 7.11459 45.9648 7.18594 45.9631 7.25534L45.9631 7.25572C45.96 7.38963 45.9571 7.51632 45.9408 7.65034C45.9175 7.84309 45.8689 8.01149 45.7677 8.15417C45.572 8.43032 45.1086 8.70115 43.9046 8.70115H36.001V1.51978H45.0346C46.1316 1.51978 46.7677 2.0164 47.1684 2.65398C47.5797 3.30858 47.7435 4.11425 47.8571 4.72015L47.8927 4.90984H48.8529L47.9791 0H31.0911V0.954767H31.3237C31.5097 0.954767 31.9159 0.957786 32.2762 1.20193C32.6196 1.43469 32.9745 1.92586 32.9745 3.01993V24.1136C32.9745 25.2077 32.6196 25.6989 32.2762 25.9316C31.9159 26.1758 31.5097 26.1788 31.3237 26.1788H31.0911V27.1336ZM46.2023 11.8716C46.2023 11.8717 46.2023 11.8717 46.2023 11.8718H46.692V7.05033H46.6918V11.8716H46.2023ZM45.8352 10.5025C45.5315 10.2006 44.9657 9.98839 43.9046 9.98839H35.7684V25.8462H35.7683V9.98826H43.9045C44.9657 9.98826 45.5315 10.2006 45.8352 10.5025ZM48.952 17.5219H48.9519L48.1609 26.9009H31.3237V26.901H48.161L48.952 17.5219ZM31.3237 0.72222C31.5466 0.72222 32.1653 0.72222 32.6332 1.19841C32.1653 0.722188 31.5467 0.722094 31.3237 0.722094V0.72222ZM47.7843 0.232547H47.7842L48.5752 4.67717H48.0856C48.0856 4.67721 48.0857 4.67725 48.0857 4.67729H48.5753L47.7843 0.232547ZM46.8697 1.93317C46.4391 1.54532 45.8503 1.28711 45.0345 1.28711H35.7683V8.93357H35.7684V1.28723H45.0346C45.8503 1.28723 46.4391 1.54539 46.8697 1.93317ZM54.5867 1.07488C54.1531 0.759853 53.6585 0.759764 53.4641 0.759764V0.759889C53.6584 0.759889 54.153 0.759889 54.5867 1.07488ZM53.4641 26.9386V26.9387L62.2783 26.901C69.6234 26.901 75.4995 20.9496 75.4995 13.6044C75.4995 10.8359 74.6732 8.26864 73.253 6.14102C74.6731 8.26861 75.4994 10.8358 75.4994 13.6043C75.4994 20.9495 69.6233 26.9009 62.2782 26.9009L53.4641 26.9386ZM75.7321 13.6044C75.7321 21.0761 69.7538 27.1333 62.2788 27.1336L53.2316 27.1722V26.2165H53.4641C53.6502 26.2165 54.0564 26.2134 54.4166 25.9693C54.76 25.7365 55.115 25.2454 55.115 24.1513V3.0576C55.115 1.96353 54.76 1.47236 54.4166 1.2396C54.0564 0.995456 53.6502 0.992436 53.4641 0.992436H53.2316V0.0376662H62.2783C69.754 0.0376662 75.7321 6.09538 75.7321 13.6044ZM58.1414 1.55745H62.2783C68.25 1.55745 72.7056 7.51182 72.7056 13.6044C72.7056 19.6589 68.2504 25.6138 62.2783 25.6138H58.1414V1.55745ZM79.2956 27.1336H86.0888V26.1788H85.8563C85.6703 26.1788 85.264 26.1758 84.9038 25.9316C84.5604 25.6989 84.2055 25.2077 84.2055 24.1136V3.01993C84.2055 1.92586 84.5604 1.43469 84.9038 1.20193C85.264 0.957786 85.6703 0.954767 85.8563 0.954767H86.0888V0H79.2956V0.954767H79.5282C79.7142 0.954767 80.1204 0.957786 80.4806 1.20193C80.8241 1.43469 81.179 1.92586 81.179 3.01993V24.1136C81.179 25.2077 80.8241 25.6989 80.4807 25.9316C80.1204 26.1758 79.7142 26.1788 79.5282 26.1788H79.2956V27.1336ZM83.9729 3.01993C83.9729 0.72222 85.4796 0.72222 85.8563 0.72222V0.232547H85.8562V0.722094C85.4795 0.722094 83.9728 0.722095 83.9728 3.0198V24.1135C83.9728 24.6891 84.0674 25.1206 84.2151 25.4439C84.0675 25.1206 83.9729 24.6892 83.9729 24.1136V3.01993ZM85.8562 26.4113V26.9009H79.5282V26.901H85.8563V26.4113C85.8563 26.4113 85.8562 26.4113 85.8562 26.4113ZM80.6111 1.00943C80.1874 0.722189 79.7166 0.722094 79.5282 0.722094V0.72222C79.7165 0.72222 80.1874 0.72222 80.6111 1.00943ZM89.0997 4.90984H90.0886L90.1326 4.73369C90.1501 4.66348 90.1678 4.59104 90.1859 4.51683L90.1864 4.51453L90.1864 4.5144C90.3277 3.93416 90.495 3.2464 90.853 2.67209C91.2439 2.04493 91.8607 1.55745 92.958 1.55745H96.7248C97.3454 1.55745 97.6894 1.67801 97.8945 1.9184C98.1095 2.17051 98.2249 2.61284 98.2249 3.3966V24.1136C98.2249 25.2077 97.87 25.6989 97.5266 25.9316C97.1664 26.1758 96.7602 26.1788 96.5741 26.1788H96.3416V27.1336H103.135V26.1788H102.902C102.716 26.1788 102.31 26.1758 101.95 25.9316C101.606 25.6989 101.251 25.2077 101.251 24.1136V3.3966C101.251 2.61284 101.367 2.17051 101.582 1.9184C101.787 1.67801 102.131 1.55745 102.752 1.55745H106.518C107.636 1.55745 108.262 2.04652 108.657 2.67306C109.019 3.24808 109.187 3.93692 109.328 4.51775L109.329 4.52213C109.347 4.59448 109.364 4.66515 109.381 4.73369L109.425 4.90984H110.374L109.5 0H90.0151L89.0997 4.90984ZM97.8524 1.57399C97.5839 1.39659 97.215 1.32477 96.7247 1.32477H92.9579C90.721 1.32477 90.258 3.23252 89.9598 4.46099L89.9591 4.4641L89.9584 4.46699L89.9578 4.46936C89.9404 4.54115 89.9235 4.6106 89.9069 4.67717H89.3797L89.3797 4.67729H89.907C89.9243 4.60814 89.9418 4.53589 89.96 4.46112C90.2581 3.23265 90.7211 1.3249 92.958 1.3249H96.7248C97.2151 1.3249 97.5839 1.39666 97.8524 1.57399ZM96.5741 26.9009V26.901H102.902V26.4113C102.902 26.4113 102.902 26.4113 102.902 26.4113V26.9009H96.5741ZM101.261 25.4439C101.113 25.1206 101.019 24.6892 101.019 24.1136V3.3966C101.019 1.81457 101.471 1.3249 102.752 1.3249H106.518C107.371 1.3249 107.969 1.59362 108.4 1.99429C107.969 1.59355 107.371 1.32477 106.518 1.32477H102.751C101.471 1.32477 101.019 1.81445 101.019 3.39648V24.1135C101.019 24.6891 101.113 25.1206 101.261 25.4439ZM109.607 4.67717C109.607 4.67721 109.607 4.67725 109.607 4.67729H110.097L110.097 4.67717H109.607ZM112.946 27.1336H130.229L131.059 17.2893H130.101L130.085 17.5049C129.972 19.0478 129.747 21.0985 129.106 22.7586C128.464 24.4208 127.441 25.6138 125.759 25.6138H117.855V10.2209H125.759C126.96 10.2209 127.425 10.4999 127.621 10.7809C127.723 10.9265 127.772 11.0969 127.795 11.2879C127.811 11.4203 127.814 11.5435 127.817 11.6724C127.819 11.7404 127.821 11.81 127.824 11.8834L127.835 12.1043H128.779V6.81779H127.835L127.824 7.03927C127.821 7.11473 127.819 7.1862 127.817 7.25572V7.25595C127.814 7.38977 127.811 7.51639 127.795 7.65034C127.772 7.84309 127.723 8.01149 127.622 8.15417C127.426 8.43032 126.963 8.70115 125.759 8.70115H117.855V1.51978H126.889C127.986 1.51978 128.622 2.0164 129.023 2.65398C129.434 3.30858 129.598 4.11425 129.711 4.72015L129.747 4.90984H130.707L129.833 0H112.946V0.954767H113.178C113.364 0.954767 113.77 0.957786 114.131 1.20193C114.474 1.43469 114.829 1.92586 114.829 3.01993V24.1136C114.829 25.2077 114.474 25.6989 114.131 25.9316C113.77 26.1758 113.364 26.1788 113.178 26.1788H112.946V27.1336ZM128.057 11.8716C128.057 11.8717 128.057 11.8717 128.057 11.8718H128.546V7.05033H128.546V11.8716H128.057ZM127.468 10.3292C127.133 10.1225 126.603 9.98826 125.759 9.98826H117.623V25.8462H117.623V9.98839H125.759C126.603 9.98839 127.133 10.1226 127.468 10.3292ZM130.806 17.5219H130.806L130.015 26.9009H113.178V26.901H130.015L130.806 17.5219ZM113.178 0.72222C113.366 0.72222 113.837 0.72222 114.261 1.00943C113.837 0.722186 113.366 0.722094 113.178 0.722094V0.72222ZM130.43 4.67729L130.43 4.67717H129.94C129.94 4.67721 129.94 4.67725 129.94 4.67729H130.43ZM126.889 1.28723C127.631 1.28723 128.185 1.50058 128.603 1.83072C128.184 1.50052 127.631 1.28711 126.889 1.28711H117.623V8.93357H117.623V1.28723H126.889ZM153.597 23.7229C152.645 22.1844 151.908 20.111 151.403 17.9952C151.327 17.6804 151.253 17.3643 151.179 17.0496L151.178 17.0462L151.178 17.046C150.89 15.8106 150.604 14.5901 150.214 13.4979C149.786 12.303 149.224 11.2341 148.37 10.4418C149.811 10.184 151.005 9.63616 151.866 8.84091C152.833 7.9489 153.368 6.7567 153.368 5.3553C153.368 3.75472 152.663 2.41656 151.455 1.48449C150.252 0.556079 148.559 0.0376662 146.581 0.0376662H135.086V0.992436H135.318C135.505 0.992436 135.911 0.995456 136.271 1.2396C136.614 1.47236 136.969 1.96353 136.969 3.0576V24.1513C136.969 25.2454 136.614 25.7365 136.271 25.9693C135.911 26.2134 135.505 26.2165 135.318 26.2165H135.086V27.1712H141.879V26.2165H141.647C141.461 26.2165 141.055 26.2134 140.696 25.9656C140.352 25.7287 139.996 25.228 139.996 24.1136V12.8511C139.996 12.1119 140.232 11.5587 140.644 11.1877C141.06 10.8135 141.685 10.5976 142.513 10.5976C144.019 10.5976 145.016 10.9069 145.86 11.8654C146.727 12.8497 147.45 14.5366 148.318 17.3644C149.017 19.6342 150.006 22.0741 151.399 23.9509C152.794 25.8297 154.616 27.1712 156.977 27.1712H157.21V26.2165H156.977C155.689 26.2165 154.554 25.2708 153.597 23.7229ZM147.824 10.2897C147.932 10.2761 148.038 10.2609 148.143 10.2442C151.233 9.75314 153.135 7.94177 153.135 5.3553C153.135 4.97392 153.093 4.60843 153.013 4.26082C153.093 4.60839 153.135 4.97385 153.135 5.35518C153.135 8.02956 151.101 9.87526 147.824 10.2896C147.824 10.2896 147.824 10.2897 147.824 10.2897ZM135.318 0.759764V0.759889C135.507 0.759889 135.978 0.759889 136.401 1.0471C135.978 0.759855 135.507 0.759764 135.318 0.759764ZM135.318 26.9386V26.9387H141.647V26.449C141.647 26.449 141.647 26.449 141.646 26.449V26.9386H135.318ZM139.775 24.4647C139.767 24.354 139.763 24.237 139.763 24.1135V12.851C139.763 11.2689 140.78 10.3649 142.513 10.3649C142.899 10.3649 143.256 10.3851 143.588 10.4311C143.256 10.3851 142.899 10.3651 142.513 10.3651C140.78 10.3651 139.763 11.2691 139.763 12.8511V24.1136C139.763 24.2371 139.767 24.354 139.775 24.4647ZM156.977 26.449C156.977 26.449 156.977 26.449 156.977 26.449V26.9386C156.691 26.9386 156.412 26.9181 156.142 26.8785C156.339 26.9073 156.54 26.9261 156.745 26.9341C156.822 26.9372 156.899 26.9387 156.977 26.9387V26.449ZM148.54 17.2959C148.54 17.2958 148.54 17.2958 148.54 17.2957C148.54 17.2958 148.54 17.2958 148.54 17.2959ZM143.191 9.07783C141.823 9.07783 140.705 9.37959 139.996 9.98842V1.55745H145.828C146.893 1.55745 148.03 1.90161 148.894 2.55138C149.755 3.19754 150.341 4.14036 150.341 5.3553C150.341 6.00438 150.22 6.54969 149.969 7.00523C149.719 7.45936 149.332 7.83948 148.776 8.14627C147.653 8.76604 145.858 9.07783 143.191 9.07783ZM139.763 10.5908C139.763 10.5908 139.763 10.5909 139.763 10.5909V1.32477H145.828C146.939 1.32477 148.125 1.68267 149.034 2.36546C148.125 1.68274 146.939 1.3249 145.828 1.3249H139.763V10.5908ZM178.851 23.7229C177.9 22.1844 177.163 20.111 176.657 17.9952C176.582 17.6805 176.508 17.3645 176.434 17.0499L176.433 17.046L176.433 17.0459C176.144 15.8105 175.859 14.5901 175.468 13.4979C175.041 12.303 174.479 11.2341 173.624 10.4418C175.066 10.184 176.26 9.63616 177.121 8.84091C178.087 7.9489 178.622 6.7567 178.622 5.3553C178.622 3.75472 177.918 2.41656 176.71 1.48449C175.506 0.556079 173.814 0.0376662 171.836 0.0376662H160.341V0.992436H160.573C160.759 0.992436 161.166 0.995456 161.526 1.2396C161.869 1.47236 162.224 1.96353 162.224 3.0576V24.1513C162.224 25.2454 161.869 25.7365 161.526 25.9693C161.166 26.2134 160.759 26.2165 160.573 26.2165H160.341V27.1712H167.134V26.2165H166.901C166.716 26.2165 166.31 26.2134 165.95 25.9656C165.607 25.7287 165.251 25.228 165.251 24.1136V12.8511C165.251 12.1119 165.486 11.5587 165.899 11.1877C166.314 10.8135 166.94 10.5976 167.768 10.5976C169.273 10.5976 170.271 10.9069 171.115 11.8654C171.982 12.8497 172.705 14.5366 173.572 17.3644C174.272 19.6342 175.261 22.0741 176.654 23.9509C178.049 25.8297 179.871 27.1712 182.232 27.1712H182.465V26.2165H182.232C180.944 26.2165 179.809 25.2708 178.851 23.7229ZM173.079 10.2897C173.187 10.2761 173.293 10.2609 173.398 10.2442C176.487 9.75314 178.39 7.94177 178.39 5.3553C178.39 4.97392 178.348 4.60843 178.267 4.26082C178.348 4.60839 178.39 4.97385 178.39 5.35518C178.39 8.02956 176.356 9.87526 173.079 10.2896C173.079 10.2896 173.079 10.2897 173.079 10.2897ZM160.573 0.759764V0.759889C160.762 0.759889 161.232 0.759889 161.656 1.0471C161.233 0.759859 160.762 0.759764 160.573 0.759764ZM160.573 26.9386V26.9387H166.901V26.449C166.901 26.449 166.901 26.449 166.901 26.449V26.9386H160.573ZM165.061 24.7512C165.033 24.5608 165.018 24.349 165.018 24.1135V12.851C165.018 11.2689 166.035 10.3649 167.768 10.3649C168.154 10.3649 168.51 10.3851 168.842 10.4311C168.51 10.3851 168.154 10.3651 167.768 10.3651C166.035 10.3651 165.018 11.2691 165.018 12.8511V24.1136C165.018 24.3491 165.033 24.5608 165.061 24.7512ZM176.206 17.097L176.205 17.0923C176.166 16.9263 176.128 16.7608 176.089 16.5961M182.232 26.449C182.232 26.449 182.232 26.449 182.232 26.449V26.9386C181.976 26.9386 181.726 26.9222 181.483 26.8904C181.652 26.9125 181.824 26.9272 181.999 26.9341C182.076 26.9372 182.154 26.9387 182.232 26.9387V26.449ZM168.446 9.07783C167.078 9.07783 165.96 9.37959 165.251 9.98842V1.55745H171.082C172.148 1.55745 173.284 1.90161 174.149 2.55138C175.009 3.19754 175.596 4.14036 175.596 5.3553C175.596 6.00438 175.474 6.54969 175.223 7.00523C174.973 7.45936 174.586 7.83948 174.031 8.14627C172.908 8.76604 171.113 9.07783 168.446 9.07783ZM174.289 2.36546C173.38 1.68267 172.194 1.32477 171.082 1.32477H165.018V10.5909C165.018 10.5909 165.018 10.5908 165.018 10.5907V1.3249H171.082C172.194 1.3249 173.38 1.68274 174.289 2.36546ZM206.276 24.0013L198.351 0H192.639V0.954767H192.872C193.061 0.954767 193.674 0.966957 194.139 1.22265C194.364 1.34633 194.542 1.51977 194.628 1.76804C194.715 2.01876 194.722 2.38086 194.536 2.90428L194.536 2.90579L187.191 23.9982L187.19 23.9995C186.792 25.1215 186.242 25.6558 185.772 25.916C185.298 26.1785 184.876 26.1788 184.698 26.1788H184.465V27.1336H190.656V26.1788H190.423C189.617 26.1788 189.121 25.9932 188.873 25.7006C188.634 25.4192 188.565 24.9642 188.798 24.2646L188.798 24.2625L191.756 15.871H200.273L202.97 24.2574L202.971 24.2589C203.186 24.9582 203.11 25.4153 202.866 25.6993C202.613 25.9936 202.115 26.1788 201.309 26.1788H201.077V27.1336H209V26.1788H208.767C208.455 26.1788 206.95 25.9866 206.276 24.0022L206.276 24.0013ZM184.698 26.9009V26.901H190.423V26.4113C190.423 26.4113 190.423 26.4113 190.423 26.4113V26.9009H184.698ZM188.51 25.5377C188.375 25.1901 188.394 24.7399 188.578 24.189L191.591 15.6385H200.443L200.443 15.6384H191.591L188.578 24.1888C188.394 24.7398 188.375 25.1901 188.51 25.5377ZM203.193 24.189C203.249 24.3726 203.288 24.545 203.31 24.7062C203.46 25.8345 202.759 26.4112 201.309 26.4112V26.9009H201.309V26.901H208.767V26.4113C208.767 26.4113 208.767 26.4113 208.767 26.4113V26.4112C208.725 26.4112 208.667 26.4085 208.597 26.4005C208.039 26.3369 206.691 25.9487 206.055 24.076C206.055 24.0759 206.055 24.0759 206.055 24.0758M192.872 0.722094V0.72222C193.07 0.72222 193.801 0.732667 194.334 1.06717C193.801 0.732652 193.07 0.722099 192.872 0.722094ZM191.93 14.546L196.187 2.41725L196.186 2.41713L191.93 14.546H191.93ZM192.258 14.3136L196.177 3.14558L199.784 14.3136H192.258ZM57.9089 25.8462V1.3249H62.2783C64.5807 1.3249 66.6554 2.18301 68.3493 3.58141C66.6553 2.18294 64.5807 1.32477 62.2782 1.32477H57.9088V25.8462H57.9089Z" fill="#534E4B"/>
</svg>
